<svg width="32" height="32" viewBox="0 0 32 32" fill="none" xmlns="http://www.w3.org/2000/svg">
<path d="M26.5312 13.5312H25.5812C24.8062 13.5312 24.1562 12.8625 24.1562 12.0688C24.1562 11.6688 24.325 11.3063 24.625 11.0375L25.2375 10.4375C25.8438 9.8375 25.8438 8.85625 25.2375 8.25625L23.8438 6.875C23.5688 6.6 23.1625 6.4375 22.75 6.4375C22.3375 6.4375 21.9375 6.6 21.6562 6.875L21.0688 7.4625C20.7875 7.775 20.4125 7.94375 20.0063 7.94375C19.2063 7.94375 18.5375 7.29375 18.5375 6.525V5.56875C18.5375 4.725 17.8563 4 17.0063 4H15.1062C14.2562 4 13.5813 4.71875 13.5813 5.56875V6.51875C13.5813 7.2875 12.9125 7.9375 12.1125 7.9375C11.7125 7.9375 11.3438 7.76875 11.075 7.475L10.4688 6.875C10.1937 6.59375 9.7875 6.4375 9.375 6.4375C8.9625 6.4375 8.5625 6.6 8.28125 6.875L6.875 8.25C6.275 8.85 6.275 9.83125 6.875 10.425L7.4625 11.0125C7.775 11.2937 7.95 11.6688 7.95 12.0688C7.95 12.8688 7.3 13.5312 6.525 13.5312H5.575C4.71875 13.5312 4 14.2 4 15.05V16V16.95C4 17.7938 4.71875 18.4688 5.575 18.4688H6.525C7.3 18.4688 7.95 19.1375 7.95 19.9312C7.95 20.3312 7.775 20.7062 7.4625 20.9875L6.875 21.5688C6.275 22.1688 6.275 23.15 6.875 23.7437L8.26875 25.1313C8.54375 25.4125 8.95 25.5688 9.3625 25.5688C9.775 25.5688 10.175 25.4062 10.4563 25.1313L11.0625 24.5312C11.325 24.2375 11.7 24.0688 12.1 24.0688C12.9 24.0688 13.5688 24.7188 13.5688 25.4875V26.4375C13.5688 27.2812 14.2438 28.0063 15.1 28.0063H17C17.85 28.0063 18.525 27.2875 18.525 26.4375V25.4875C18.525 24.7188 19.1937 24.0688 19.9937 24.0688C20.3937 24.0688 20.7687 24.2437 21.0562 24.55L21.6437 25.1375C21.925 25.4125 22.325 25.575 22.7375 25.575C23.15 25.575 23.55 25.4125 23.8312 25.1375L25.225 23.75C25.825 23.15 25.825 22.1688 25.225 21.5688L24.6125 20.9688C24.3125 20.7 24.1437 20.3312 24.1437 19.9375C24.1437 19.1375 24.7938 18.475 25.5688 18.475H26.5187C27.3687 18.475 27.975 17.8062 27.975 16.9562V16V15.05C27.9875 14.2 27.3813 13.5312 26.5312 13.5312ZM21.05 16C21.05 18.7563 18.8187 21 16.05 21C13.2812 21 11.05 18.7563 11.05 16C11.05 13.2437 13.2812 11 16.05 11C18.8187 11 21.05 13.2437 21.05 16Z" fill="#D1D1D1"/>
</svg>
